{"title":"Zedd - Find You FULL HD (ft. Matthew Koma, Miriam Bryant) Zaydel","uid":9782195,"size":97414561,"categoryP":"video","categoryS":"music_videos","magnet":"?xt=urn:btih:50a13511f19943a29485efd7eed13d9fa3af1280&amp;dn=Zedd+-+Find+You+FULL+HD+%28ft.+Matthew+Koma%2C+Miriam+Bryant%29+Zaydel&amp;tr=udp%3A%2F%2Ftracker.openbittorrent.com%3A80&amp;tr=udp%3A%2F%2Fopen.demonii.com%3A1337&amp;tr=udp%3A%2F%2Ftracker.coppersurfer.tk%3A6969&amp;tr=udp%3A%2F%2Fexodus.desync.com%3A6969","seeders":1,"leechers":1,"uploader":"ZaydelJmz","files":1,"time":1395109691,"description":"-----------------------------------------------------------------------------------\n                                        INFO\n-----------------------------------------------------------------------------------\n\n[General]\nFormat                                   : MPEG-4\nFormat profile                           : Base Media\nCodec ID                                 : isom\nFile size                                : 33.9 MiB\nDuration                                 : 3mn 36s\nOverall bit rate mode                    : Variable\nOverall bit rate                         : 1 309 Kbps\nEncoded date                             : UTC 2013-09-21 23:15:18\nTagged date                              : UTC 2013-09-21 23:15:18\nWriting application                      : Lavf54.63.104\n\n[Video]\nID                                       : 1\nFormat                                   : AVC\nFormat/Info                              : Advanced Video Codec\nFormat profile                           : &lt;a class=&quot;__cf_email__&quot; href=&quot;/cdn-cgi/l/email-protection&quot; data-cfemail=&quot;ca87aba3a48a86f9e4fa&quot;&gt;[email&amp;#160;protected]&lt;/a&gt;&lt;script cf-hash='f9e31' type=&quot;text/javascript&quot;&gt;\n/* &lt;![CDATA[ */!function(){try{var t=&quot;currentScript&quot;in document?document.currentScript:function(){for(var t=document.getElementsByTagName(&quot;script&quot;),e=t.length;e--;)if(t[e].getAttribute(&quot;cf-hash&quot;))return t[e]}();if(t&amp;&amp;t.previousSibling){var e,r,n,i,c=t.previousSibling,a=c.getAttribute(&quot;data-cfemail&quot;);if(a){for(e=&quot;&quot;,r=parseInt(a.substr(0,2),16),n=2;a.length-n;n+=2)i=parseInt(a.substr(n,2),16)^r,e+=String.fromCharCode(i);e=document.createTextNode(e),c.parentNode.replaceChild(e,c)}}}catch(u){}}();/* ]]&gt; */&lt;/script&gt;\nFormat settings, CABAC                   : Yes\nFormat settings, ReFrames                : 1 frame\nCodec ID                                 : avc1\nCodec ID/Info                            : Advanced Video Coding\nDuration                                 : 3mn 36s\nBit rate                                 : 1 175 Kbps\nWidth                                    : 852 pixels\nHeight                                   : 480 pixels\nDisplay aspect ratio                     : 16:9\nFrame rate mode                          : Constant\nFrame rate                               : 23.976 fps\nColor space                              : YUV\nChroma subsampling                       : 4:2:0\nBit depth                                : 8 bits\nScan type                                : Progressive\nBits/(Pixel*Frame)                       : 0.120\nStream size                              : 29.8 MiB (88%)\nWriting library                          : x264 core 129\nEncoded date                             : UTC 2013-09-21 23:15:18\nTagged date                              : UTC 2013-09-21 23:15:18\n\n[Audio]\nID                                       : 2\nFormat                                   : AAC\nFormat/Info                              : Advanced Audio Codec\nFormat profile                           : LC\nCodec ID                                 : 40\nDuration                                 : 3mn 36s\nDuration_FirstFrame                      : 70ms\nBit rate mode                            : Variable\nBit rate                                 : 152 Kbps\nMaximum bit rate                         : 176 Kbps\nChannel(s)                               : 2 channels\nChannel positions                        : Front: L R\nSampling rate                            : 44.1 KHz\nCompression mode                         : Lossy\nStream size                              : 3.92 MiB (12%)\nEncoded date                             : UTC 2013-09-21 23:15:18\nTagged date                              : UTC 2013-09-21 23:15:18\t","torrent":{"xt":"urn:btih:50a13511f19943a29485efd7eed13d9fa3af1280","amp;dn":"Zedd+-+Find+You+FULL+HD+%28ft.+Matthew+Koma%2C+Miriam+Bryant%29+Zaydel","amp;tr":["udp%3A%2F%2Ftracker.openbittorrent.com%3A80","udp%3A%2F%2Fopen.demonii.com%3A1337","udp%3A%2F%2Ftracker.coppersurfer.tk%3A6969","udp%3A%2F%2Fexodus.desync.com%3A6969"],"infoHash":"50a13511f19943a29485efd7eed13d9fa3af1280","infoHashBuffer":{"type":"Buffer","data":[80,161,53,17,241,153,67,162,148,133,239,215,238,209,61,159,163,175,18,128]},"announce":[],"urlList":[]}}